<?xml version="1.0" encoding="UTF-8" standalone="no"?>
<!-- Created with Inkscape (http://www.inkscape.org/) -->

<svg
   width="500"
   height="500"
   viewBox="0 0 132.29166 132.29167"
   version="1.1"
   id="svg1"
   xml:space="preserve"
   inkscape:version="1.3.2 (091e20e, 2023-11-25, custom)"
   sodipodi:docname="icon.svg"
   xmlns:inkscape="http://www.inkscape.org/namespaces/inkscape"
   xmlns:sodipodi="http://sodipodi.sourceforge.net/DTD/sodipodi-0.dtd"
   xmlns="http://www.w3.org/2000/svg"
   xmlns:svg="http://www.w3.org/2000/svg"><sodipodi:namedview
     id="namedview1"
     pagecolor="#ffffff"
     bordercolor="#666666"
     borderopacity="1.0"
     inkscape:showpageshadow="false"
     inkscape:pageopacity="0.0"
     inkscape:pagecheckerboard="0"
     inkscape:deskcolor="#d1d1d1"
     inkscape:document-units="mm"
     showborder="false"
     borderlayer="false"
     inkscape:zoom="1.0469406"
     inkscape:cx="150.91591"
     inkscape:cy="268.87867"
     inkscape:window-width="960"
     inkscape:window-height="1027"
     inkscape:window-x="-8"
     inkscape:window-y="22"
     inkscape:window-maximized="0"
     inkscape:current-layer="layer1" /><defs
     id="defs1"><rect
       x="-1123.2729"
       y="15.282624"
       width="1121.3625"
       height="475.67167"
       id="rect2" /></defs><g
     inkscape:label="Layer 1"
     inkscape:groupmode="layer"
     id="layer1"><rect
       style="fill:#3b036d;fill-opacity:1;stroke:#000000;stroke-width:0.264583"
       id="rect3"
       width="132.93097"
       height="132.42552"
       x="-0.25272048"
       y="-0.25272048" /><path
       style="fill:#ffffff;stroke-width:1.183;fill-opacity:1"
       d="m 33.407776,115.75949 c 0.510403,-0.31118 9.794681,-5.08512 20.63173,-10.60876 C 64.876555,99.627096 73.809262,94.909662 73.889966,94.667549 55.793385,79.341871 36.752139,64.972506 18.1367,50.233091 L 10.005242,43.737049 9.99043,39.677025 C 9.98227,37.444011 10.137534,35.617 10.335422,35.617 c 0.312441,0 15.465021,11.77337 30.728395,23.875588 2.679616,2.124649 5.289631,4.18863 5.800035,4.586625 0.510402,0.397996 3.611939,2.874268 6.892302,5.502827 3.280358,2.62856 6.543751,5.196802 7.251964,5.707206 0.708213,0.510403 4.810328,3.753901 9.115799,7.207774 4.305472,3.453873 8.579914,6.847867 9.498772,7.542209 l 1.67064,1.262439 2.737386,-1.443783 C 85.53628,89.063804 86.939492,88.254596 87.148966,88.059643 87.459183,87.770946 78.816618,80.683158 71.223999,74.999527 70.734722,74.633265 62.593251,68.016521 57.355885,63.921175 55.874217,62.776755 51.74279,59.51591 34.986113,46.265191 30.290004,42.551636 22.488731,36.391998 17.649952,32.577106 5.7593125,23.202528 6.7276113,24.327333 6.7276113,19.889377 c 0,-2.038152 0.167639,-3.809337 0.3725318,-3.935967 0.2048928,-0.126631 1.3010996,0.550207 2.4360152,1.504085 1.1349157,0.953878 12.8167487,10.211795 25.9596297,20.573148 13.142882,10.361353 25.357759,20.012782 27.144168,21.44762 1.786409,1.434838 3.494492,2.551669 3.79573,2.481848 0.301251,-0.06982 13.560132,-10.387861 29.464184,-22.928976 15.90406,-12.541114 29.12527,-22.825964 29.38047,-22.855223 0.2654,-0.03043 0.52171,1.537908 0.5988,3.664197 0.1622,4.472763 1.25042,3.217968 -11.5207,13.284214 -7.75414,6.111838 -24.651018,19.442459 -35.24638,27.807266 -1.148407,0.906642 -3.063242,2.382818 -4.255195,3.280392 -1.191941,0.897573 -2.278642,1.922431 -2.414876,2.277463 -0.155978,0.406468 0.818386,1.451871 2.631176,2.822989 1.583382,1.197612 4.027289,3.09431 5.430904,4.214885 1.403603,1.120575 3.825435,3.019432 5.381834,4.219683 1.556399,1.20025 5.390505,4.240264 8.520243,6.755585 l 5.690444,4.57331 -1.168768,0.762722 c -0.642829,0.419497 -3.485134,1.903554 -6.316248,3.297905 -2.831102,1.394349 -5.14747,2.671266 -5.14747,2.837591 0,0.166325 2.192414,2.019206 4.872033,4.117516 l 4.872033,3.8151 v 4.17404 c 0,2.35192 -0.18689,4.10652 -0.428127,4.01937 -0.235475,-0.0851 -3.791814,-2.82602 -7.902978,-6.091 -4.111177,-3.26498 -7.806861,-6.063727 -8.212629,-6.219437 -0.413138,-0.158534 -2.034057,0.402327 -3.683676,1.274587 -2.658751,1.40587 -2.879369,1.63122 -2.263311,2.31196 0.490317,0.54179 0.68259,1.8876 0.68259,4.77773 0,2.21292 -0.12082,4.02349 -0.268482,4.02349 -0.147661,0 -1.765872,-1.21517 -3.596028,-2.70039 -1.830144,-1.48521 -3.591888,-2.85681 -3.914988,-3.048 -0.352935,-0.20885 -4.580317,1.70262 -10.589944,4.7884 l -10.0025,5.13601 -7.274164,-0.0141 c -5.924162,-0.0118 -7.101937,-0.1191 -6.346157,-0.57989 z M 46.342208,89.587478 C 39.993875,84.589733 34.27778,80.102514 33.639777,79.615879 33.001773,79.129244 29.134409,76.077463 25.045635,72.834141 20.95686,69.59082 16.630691,66.206389 15.431923,65.313183 l -2.179577,-1.624009 -0.01435,-4.292027 c -0.0079,-2.360615 0.0993,-4.292027 0.238211,-4.292027 0.138906,0 1.895245,1.305008 3.902972,2.900019 2.007728,1.595009 4.569894,3.573377 5.693704,4.396372 1.123808,0.822995 2.760493,2.127005 3.637073,2.897803 0.876583,0.770797 5.247808,4.241829 9.713836,7.713402 4.466027,3.471573 9.164056,7.189523 10.440063,8.26211 1.276009,1.072587 5.713036,4.62052 9.860059,7.884296 4.147033,3.263777 7.540047,6.017039 7.540047,6.11836 0,0.101324 -1.435354,0.907053 -3.189669,1.790513 l -3.189668,1.60629 z m 54.201152,-5.845326 c -2.058819,-1.586679 -3.755876,-3.041473 -3.771243,-3.232875 -0.01538,-0.1914 2.06006,-0.348001 4.612083,-0.348001 2.55201,0 4.64002,-0.16605 4.64002,-0.369 0,-0.521214 -5.43309,-3.191758 -7.65605,-3.763204 -1.020797,-0.262414 -3.442735,-0.603291 -5.38207,-0.757504 L 89.460046,74.991179 85.446053,71.76085 C 83.238366,69.984169 81.44118,68.276424 81.452324,67.965859 81.462974,67.655295 83.89325,65.521985 86.851844,63.22517 89.810438,60.928356 98.92871,53.776912 107.11466,47.333072 115.30061,40.889233 122.16248,35.617 122.36327,35.617 c 0.46094,0 0.47009,7.488011 0.009,8.136436 -0.18749,0.264215 -3.15972,2.703875 -6.60495,5.421468 -3.44522,2.717594 -7.30804,5.781946 -8.58404,6.809673 -1.27602,1.027726 -5.17787,4.110337 -8.670805,6.850246 -3.49293,2.739908 -6.247232,5.149216 -6.120651,5.354016 0.126569,0.204801 1.118086,0.372364 2.203368,0.372364 2.655605,0 8.805378,1.632928 11.660068,3.096061 6.09199,3.122353 11.45047,7.909338 12.21202,10.909541 0.6122,2.411909 0.39362,2.801497 -1.20838,2.153725 -0.69276,-0.280124 -2.92999,-0.533147 -4.97159,-0.562274 -3.25721,-0.04647 -3.97483,0.101537 -5.85682,1.207906 l -2.1448,1.260862 z"
       id="path1"
       sodipodi:nodetypes="ssssccssssssscsssssssssssssscsssssssscsssscscsssssssssccssssssccssssssssscscssssscscssscsssssssssscc" /></g></svg>
