<?xml version="1.0" encoding="UTF-8" standalone="no"?>
<!-- Created with Inkscape (http://www.inkscape.org/) -->

<svg
   width="500"
   height="500"
   viewBox="0 0 132.29166 132.29167"
   version="1.1"
   id="svg1"
   xml:space="preserve"
   inkscape:version="1.3.2 (091e20e, 2023-11-25, custom)"
   sodipodi:docname="icon.svg"
   xmlns:inkscape="http://www.inkscape.org/namespaces/inkscape"
   xmlns:sodipodi="http://sodipodi.sourceforge.net/DTD/sodipodi-0.dtd"
   xmlns="http://www.w3.org/2000/svg"
   xmlns:svg="http://www.w3.org/2000/svg"><sodipodi:namedview
     id="namedview1"
     pagecolor="#ffffff"
     bordercolor="#666666"
     borderopacity="1.0"
     inkscape:showpageshadow="false"
     inkscape:pageopacity="0.0"
     inkscape:pagecheckerboard="0"
     inkscape:deskcolor="#d1d1d1"
     inkscape:document-units="mm"
     showborder="false"
     borderlayer="false"
     inkscape:zoom="0.3701494"
     inkscape:cx="-320.141"
     inkscape:cy="411.99581"
     inkscape:window-width="1920"
     inkscape:window-height="1027"
     inkscape:window-x="-8"
     inkscape:window-y="22"
     inkscape:window-maximized="1"
     inkscape:current-layer="layer1" /><defs
     id="defs1"><rect
       x="-1123.2729"
       y="15.282624"
       width="1121.3625"
       height="475.67167"
       id="rect2" /></defs><g
     inkscape:label="Layer 1"
     inkscape:groupmode="layer"
     id="layer1"><rect
       style="fill:#3b036d;fill-opacity:1;stroke:#000000;stroke-width:0.264583"
       id="rect3"
       width="132.93097"
       height="132.42552"
       x="-0.25272048"
       y="-0.25272048" /><path
       style="fill:#ffffff;fill-opacity:1;stroke-width:0.979443"
       d="m 38.880497,107.22258 c 0.422579,-0.25763 8.109331,-4.21013 17.081671,-8.783342 C 64.93451,93.866044 72.330185,89.960332 72.397003,89.759879 57.414262,77.071258 41.649402,65.174398 26.237081,52.971163 l -6.732295,-5.378282 -0.01226,-3.361424 c -0.0067,-1.848785 0.121791,-3.361425 0.285629,-3.361425 0.25868,0 12.803988,9.747551 25.441025,19.767366 2.218541,1.759066 4.379457,3.467901 4.802037,3.797414 0.422577,0.329514 2.99044,2.379699 5.706358,4.555968 2.715913,2.176269 5.417781,4.3026 6.004134,4.72518 0.586352,0.422578 3.982625,3.107975 7.547262,5.967547 3.564639,2.859573 7.103588,5.669569 7.864339,6.244437 l 1.383176,1.045214 2.266371,-1.195355 c 1.246505,-0.657445 2.40827,-1.327414 2.5817,-1.488821 C 83.631394,84.049959 76.475938,78.181752 70.189764,73.476091 69.784675,73.172851 63.04409,67.694636 58.707906,64.303968 57.481186,63.356466 54.060645,60.656707 40.187254,49.686011 36.299194,46.61144 29.840269,41.511678 25.834088,38.353206 15.989446,30.591691 16.791132,31.522953 16.791132,27.848627 c 0,-1.687451 0.138793,-3.153872 0.30843,-3.258714 0.169639,-0.104843 1.077223,0.455534 2.016856,1.245281 0.939633,0.789747 10.611399,8.454673 21.492812,17.03317 10.881415,8.578498 20.994503,16.569226 22.473528,17.757174 1.479027,1.187949 2.893203,2.112609 3.142607,2.054802 0.249416,-0.05781 11.22687,-8.600445 24.394342,-18.983636 13.167483,-10.383192 24.113753,-18.898349 24.325043,-18.922574 0.21973,-0.0252 0.43194,1.273284 0.49576,3.033707 0.1343,3.703144 1.03526,2.664259 -9.53836,10.998427 -6.419897,5.060188 -20.409366,16.097037 -29.181607,23.022529 -0.950802,0.750638 -2.536156,1.972812 -3.523013,2.715942 -0.986846,0.74313 -1.886561,1.591643 -1.999353,1.885585 -0.12914,0.336528 0.677568,1.202051 2.178435,2.337244 1.310933,0.991541 3.334322,2.561878 4.49642,3.489638 1.162088,0.927761 3.1672,2.499885 4.455794,3.493611 1.288592,0.993726 4.462972,3.510651 7.054183,5.593166 l 4.711301,3.78639 -0.967666,0.631483 c -0.53222,0.347315 -2.885447,1.576013 -5.229419,2.730441 -2.343961,1.154427 -4.261756,2.211623 -4.261756,2.349331 0,0.137709 1.81517,1.671766 4.033713,3.40903 l 4.033715,3.158642 v 3.455824 c 0,1.94724 -0.154731,3.39992 -0.354462,3.32776 -0.194959,-0.0705 -3.139365,-2.33974 -6.543131,-5.042942 -3.403775,-2.703178 -6.463551,-5.020349 -6.799499,-5.149261 -0.34205,-0.131262 -1.684061,0.333099 -3.049833,1.055264 -2.201266,1.163974 -2.383923,1.350548 -1.873868,1.914148 0.405949,0.448571 0.565138,1.562799 0.565138,3.955641 0,1.83216 -0.100029,3.33118 -0.222285,3.33118 -0.122253,0 -1.462022,-1.00607 -2.977267,-2.23574 -1.515235,-1.22965 -2.97384,-2.365252 -3.241344,-2.523542 -0.292207,-0.17291 -3.792192,1.409662 -8.767756,3.964472 l -8.281391,4.25227 -6.022514,-0.0117 c -4.904804,-0.009 -5.879922,-0.0986 -5.254187,-0.48011 z M 49.589328,85.553925 c -5.255989,-4.137794 -9.988527,-7.852907 -10.51675,-8.255808 -0.528225,-0.4029 -3.730139,-2.929568 -7.115367,-5.614818 -3.385228,-2.68525 -6.967003,-5.48733 -7.959501,-6.226843 l -1.804541,-1.34457 -0.01188,-3.553507 c -0.0065,-1.954429 0.08222,-3.553507 0.197223,-3.553507 0.115004,0 1.569134,1.080459 3.231396,2.40102 1.662263,1.320559 3.783562,2.958513 4.714001,3.639897 0.930436,0.681384 2.285501,1.761016 3.011249,2.399184 0.725751,0.638168 4.344829,3.511947 8.042397,6.386173 3.697567,2.874227 7.587216,5.952438 8.643664,6.840467 1.056448,0.888029 4.730006,3.825477 8.163459,6.527662 3.433462,2.702186 6.242648,4.981701 6.242648,5.065587 0,0.08389 -1.188376,0.750981 -2.64083,1.482426 l -2.640829,1.329891 z m 44.874876,-4.839534 c -1.704557,-1.313661 -3.109607,-2.518133 -3.122332,-2.6766 -0.01275,-0.158466 1.70559,-0.288122 3.818489,-0.288122 2.112889,0 3.841622,-0.137478 3.841622,-0.305507 0,-0.431529 -4.498225,-2.642558 -6.338689,-3.115677 -0.845147,-0.217261 -2.850349,-0.499484 -4.455993,-0.627162 L 85.287972,73.46918 81.964659,70.794687 c -1.827815,-1.470972 -3.315764,-2.884869 -3.306537,-3.141995 0.0088,-0.257126 2.020921,-2.023363 4.470435,-3.924969 2.449516,-1.901606 9.998825,-7.822516 16.776236,-13.157579 6.777407,-5.335061 12.458577,-9.700112 12.624817,-9.700112 0.38162,0 0.38921,6.199564 0.007,6.736417 -0.15523,0.218752 -2.61604,2.238624 -5.46845,4.488607 -2.85241,2.249983 -6.05057,4.787059 -7.107007,5.637948 -1.05646,0.850887 -4.286923,3.403079 -7.178838,5.671538 -2.891905,2.268458 -5.172283,4.263201 -5.067484,4.432762 0.104791,0.169561 0.925703,0.308292 1.824235,0.308292 2.198665,0 7.290258,1.351953 9.653747,2.563329 5.043757,2.585096 9.480207,6.548395 10.110737,9.032359 0.50685,1.996897 0.32588,2.319449 -1.00046,1.783138 -0.57357,-0.231924 -2.42584,-0.441409 -4.11614,-0.465524 -2.69675,-0.03847 -3.2909,0.08406 -4.849057,1.000063 l -1.77574,1.043908 z"
       id="path1"
       sodipodi:nodetypes="ssssccssssssscsssssssssssssscsssssssscsssscscsssssssssccssssssccssssssssscscssssscscssscsssssssssscc" /></g></svg>
