<svg xmlns="http://www.w3.org/2000/svg" xml:space="preserve" width="500" height="500" viewBox="0 0 132.292 132.292"><path d="M-.253-.253h132.931v132.426H-.253z" style="fill:#3b036d;fill-opacity:1;stroke:#000;stroke-width:.264583"/><path d="M38.88 107.223c.423-.258 8.11-4.21 17.082-8.784 8.973-4.573 16.368-8.479 16.435-8.68-14.983-12.688-30.748-24.585-46.16-36.788l-6.732-5.378-.012-3.362c-.007-1.848.121-3.361.285-3.361.259 0 12.804 9.748 25.441 19.767 2.219 1.76 4.38 3.468 4.802 3.798.423.33 2.99 2.38 5.707 4.556 2.715 2.176 5.417 4.302 6.004 4.725.586.423 3.982 3.108 7.547 5.968 3.565 2.86 7.104 5.67 7.864 6.244l1.383 1.045 2.267-1.195c1.246-.658 2.408-1.328 2.582-1.489.256-.239-6.9-6.107-13.185-10.813-.405-.303-7.146-5.781-11.482-9.172-1.227-.948-4.647-3.647-18.52-14.618-3.889-3.075-10.348-8.174-14.354-11.333-9.845-7.761-9.043-6.83-9.043-10.504 0-1.688.139-3.154.309-3.26.17-.104 1.077.456 2.016 1.246.94.79 10.612 8.455 21.493 17.033 10.882 8.579 20.995 16.57 22.474 17.758 1.479 1.187 2.893 2.112 3.142 2.054.25-.057 11.227-8.6 24.395-18.983 13.167-10.383 24.113-18.899 24.325-18.923.22-.025.432 1.273.496 3.034.134 3.703 1.035 2.664-9.539 10.998-6.42 5.06-20.41 16.097-29.181 23.023-.951.75-2.537 1.973-3.523 2.716-.987.743-1.887 1.591-2 1.885-.129.337.678 1.202 2.179 2.338 1.31.991 3.334 2.561 4.496 3.49a408.6 408.6 0 0 0 4.456 3.493 603.78 603.78 0 0 1 7.054 5.593l4.711 3.786-.967.632c-.533.347-2.886 1.576-5.23 2.73-2.344 1.155-4.262 2.212-4.262 2.35 0 .137 1.816 1.671 4.034 3.409l4.034 3.158v3.456c0 1.947-.155 3.4-.355 3.328-.195-.07-3.139-2.34-6.543-5.043-3.403-2.703-6.463-5.02-6.8-5.15-.341-.13-1.683.334-3.049 1.056-2.201 1.164-2.384 1.35-1.874 1.914.406.449.565 1.563.565 3.956 0 1.832-.1 3.33-.222 3.33s-1.462-1.005-2.977-2.235c-1.516-1.23-2.974-2.365-3.242-2.523-.292-.173-3.792 1.41-8.767 3.964l-8.282 4.252-6.022-.011c-4.905-.01-5.88-.099-5.255-.48zm10.71-21.67a2852.304 2852.304 0 0 0-10.517-8.255c-.529-.403-3.73-2.93-7.116-5.615-3.385-2.685-6.967-5.487-7.96-6.227l-1.804-1.344-.012-3.554c-.006-1.954.083-3.553.198-3.553s1.569 1.08 3.23 2.4c1.663 1.321 3.784 2.96 4.715 3.64.93.682 2.285 1.762 3.011 2.4.726.638 4.345 3.512 8.043 6.386 3.697 2.874 7.587 5.953 8.643 6.84 1.057.889 4.73 3.826 8.164 6.528 3.433 2.702 6.242 4.982 6.242 5.066 0 .084-1.188.75-2.64 1.482l-2.641 1.33zm44.874-4.839c-1.704-1.313-3.11-2.518-3.122-2.676-.013-.159 1.705-.288 3.818-.288s3.842-.138 3.842-.306c0-.431-4.498-2.642-6.339-3.116-.845-.217-2.85-.499-4.456-.627l-2.919-.232-3.323-2.674c-1.828-1.471-3.316-2.885-3.307-3.142.009-.257 2.021-2.024 4.47-3.925A4739.57 4739.57 0 0 0 99.906 50.57c6.777-5.335 12.458-9.7 12.625-9.7.381 0 .389 6.2.007 6.736-.156.22-2.616 2.24-5.469 4.49a1317.23 1317.23 0 0 0-7.107 5.637c-1.056.85-4.287 3.403-7.179 5.672-2.892 2.268-5.172 4.263-5.067 4.432.105.17.926.309 1.824.309 2.199 0 7.29 1.352 9.654 2.563 5.044 2.585 9.48 6.548 10.11 9.032.507 1.997.326 2.32-1 1.783-.573-.232-2.426-.441-4.116-.465-2.697-.039-3.291.084-4.85 1l-1.775 1.044z" style="fill:#fff;fill-opacity:1;stroke-width:.979443"/></svg>
