<svg xmlns="http://www.w3.org/2000/svg" width="493.114" height="415.189" viewBox="0 0 130.47 109.852"><defs><path id="d" d="M-32.928 70.345h148.923v83.816H-32.928z"/><path id="c" d="M223.384 239.474h111.505v90.551H223.384z"/><path id="b" d="M86.809 77.829h85.687v74.461H86.809z"/><path id="a" d="M6.048 117.929H198.06v60.476H6.048z"/></defs><g style="fill:#fff;fill-opacity:1"><path d="M87.987 259.254c.558-.34 10.715-5.563 22.57-11.606 11.856-6.043 21.628-11.203 21.716-11.468-19.797-16.766-40.627-32.486-60.992-48.61l-8.896-7.107-.016-4.441c-.01-2.443.16-4.442.377-4.442.342 0 16.919 12.88 33.616 26.12a2080.26 2080.26 0 0 0 6.346 5.017c.558.435 3.95 3.144 7.54 6.02 3.588 2.875 7.158 5.685 7.933 6.243.775.559 5.262 4.107 9.972 7.886 4.71 3.778 9.387 7.491 10.392 8.25l1.828 1.382 2.994-1.58c1.647-.869 3.182-1.754 3.411-1.967.34-.316-9.115-8.07-17.421-14.288-.535-.4-9.442-7.639-15.171-12.119-1.621-1.252-6.141-4.82-24.472-19.315a20037.988 20037.988 0 0 0-18.966-14.975C57.74 158 58.8 159.23 58.8 154.374c0-2.23.184-4.167.408-4.306.224-.138 1.423.602 2.665 1.646 1.241 1.043 14.021 11.171 28.4 22.506 14.377 11.335 27.74 21.894 29.694 23.464 1.954 1.57 3.823 2.791 4.153 2.715.33-.077 14.834-11.364 32.233-25.084 17.398-13.72 31.862-24.971 32.141-25.003.29-.033.571 1.682.655 4.008.178 4.893 1.368 3.52-12.603 14.533-8.483 6.686-26.968 21.27-38.559 30.42a311.678 311.678 0 0 1-4.655 3.59c-1.304.981-2.493 2.102-2.642 2.49-.17.445.896 1.589 2.879 3.089a349.042 349.042 0 0 1 5.941 4.61 539.843 539.843 0 0 0 5.888 4.617c1.702 1.313 5.897 4.639 9.32 7.39l6.226 5.004-1.279.834c-.703.459-3.812 2.083-6.91 3.608-3.097 1.525-5.63 2.922-5.63 3.104 0 .182 2.398 2.21 5.33 4.505l5.329 4.173v4.567c0 2.573-.204 4.492-.468 4.397-.258-.093-4.148-3.092-8.646-6.664-4.498-3.572-8.54-6.633-8.984-6.804-.452-.173-2.226.44-4.03 1.395-2.909 1.538-3.15 1.784-2.476 2.529.536.593.746 2.065.746 5.227 0 2.42-.132 4.401-.293 4.401-.162 0-1.932-1.33-3.934-2.954-2.002-1.625-3.93-3.125-4.283-3.334-.386-.229-5.01 1.862-11.585 5.238l-10.943 5.619-7.958-.016c-6.48-.013-7.769-.13-6.942-.634zm14.15-28.632c-6.945-5.467-13.198-10.376-13.896-10.908-.698-.533-4.93-3.871-9.402-7.42-4.473-3.548-9.206-7.25-10.517-8.227l-2.385-1.777-.015-4.695c-.01-2.583.108-4.696.26-4.696.152 0 2.073 1.428 4.27 3.173 2.196 1.745 5 3.91 6.229 4.81 1.23.9 3.02 2.326 3.979 3.17.959.843 5.74 4.64 10.626 8.438 4.886 3.798 10.026 7.865 11.421 9.039 1.396 1.173 6.25 5.054 10.787 8.625 4.537 3.57 8.249 6.582 8.249 6.693 0 .11-1.57.992-3.49 1.959l-3.49 1.757zm59.295-6.394c-2.253-1.736-4.11-3.328-4.126-3.537-.017-.21 2.254-.38 5.045-.38 2.792 0 5.077-.182 5.077-.404 0-.57-5.944-3.492-8.376-4.117-1.117-.287-3.766-.66-5.888-.829l-3.857-.307-4.391-3.534c-2.416-1.943-4.382-3.811-4.37-4.151.012-.34 2.67-2.674 5.907-5.186 3.237-2.513 13.212-10.337 22.167-17.386 8.956-7.05 16.462-12.817 16.682-12.817.504 0 .514 8.192.01 8.901-.205.289-3.457 2.958-7.226 5.931a1740.773 1740.773 0 0 0-9.39 7.45 1393.701 1393.701 0 0 1-9.486 7.494c-3.821 2.997-6.834 5.633-6.696 5.857.139.224 1.223.407 2.41.407 2.906 0 9.633 1.786 12.756 3.387 6.665 3.416 12.527 8.653 13.36 11.935.67 2.638.43 3.065-1.322 2.356-.758-.306-3.205-.583-5.439-.615-3.563-.051-4.348.111-6.407 1.321l-2.346 1.38z" style="fill:#fff;fill-opacity:1;stroke-width:1.29417" transform="translate(-58.779 -150.052)"/></g></svg>
