<svg xmlns="http://www.w3.org/2000/svg" width="1500" height="500" viewBox="0 0 396.875 132.292"><defs><path id="d" d="M-32.928 70.345h148.923v83.816H-32.928z"/><path id="c" d="M223.384 239.474h111.505v90.551H223.384z"/><path id="b" d="M86.809 77.829h85.687v74.461H86.809z"/><path id="a" d="M6.048 117.929H198.06v60.476H6.048z"/><path id="e" d="M-1123.273 15.283H-1.911v475.672h-1121.362z"/></defs><text xml:space="preserve" style="font-size:144px;line-height:1.25;font-family:&quot;Cormorant Garamond&quot;;-inkscape-font-specification:&quot;Cormorant Garamond&quot;;letter-spacing:0;word-spacing:0;white-space:pre;shape-inside:url(#e);fill:#000;fill-opacity:1" transform="translate(340.943 -.461) scale(.30242)"><tspan x="-1123.273" y="365.585"><tspan style="font-size:385px;font-family:&quot;Noto Sans&quot;;-inkscape-font-specification:&quot;Noto Sans, Normal&quot;">falco</tspan></tspan></text><path d="M344.322 262.263c.558-.34 10.715-5.563 22.57-11.606 11.856-6.043 21.628-11.204 21.716-11.469-19.797-16.765-40.628-32.485-60.993-48.61l-8.895-7.106-.016-4.442c-.01-2.443.16-4.441.377-4.441.342 0 16.918 12.88 33.616 26.119a2080.21 2080.21 0 0 0 6.345 5.018c.559.435 3.952 3.144 7.54 6.02 3.589 2.875 7.159 5.685 7.934 6.243.774.558 5.262 4.107 9.972 7.885 4.71 3.779 9.386 7.492 10.392 8.251l1.827 1.381 2.995-1.58c1.647-.868 3.182-1.753 3.411-1.966.34-.316-9.115-8.07-17.421-14.288-.536-.4-9.442-7.64-15.172-12.12-1.62-1.251-6.14-4.819-24.472-19.315a20037.988 20037.988 0 0 0-18.965-14.974c-13.008-10.256-11.949-9.025-11.949-13.88 0-2.23.183-4.167.408-4.306.224-.138 1.423.602 2.665 1.646 1.241 1.043 14.02 11.171 28.399 22.506 14.378 11.335 27.74 21.894 29.695 23.463 1.954 1.57 3.823 2.792 4.152 2.715.33-.076 14.835-11.364 32.233-25.083 17.4-13.72 31.863-24.972 32.142-25.004.29-.033.57 1.683.655 4.009.177 4.893 1.368 3.52-12.603 14.533-8.483 6.686-26.968 21.27-38.56 30.42a311.678 311.678 0 0 1-4.654 3.589c-1.304.982-2.493 2.103-2.642 2.491-.17.445.895 1.589 2.878 3.089a349.042 349.042 0 0 1 5.942 4.61 539.843 539.843 0 0 0 5.887 4.617c1.703 1.313 5.897 4.639 9.321 7.39l6.226 5.003-1.28.835c-.702.459-3.812 2.082-6.909 3.608-3.097 1.525-5.631 2.922-5.631 3.104 0 .182 2.398 2.209 5.33 4.504l5.33 4.174v4.566c0 2.573-.205 4.493-.469 4.397-.257-.093-4.148-3.091-8.645-6.663-4.498-3.572-8.54-6.634-8.985-6.804-.452-.173-2.225.44-4.03 1.394-2.908 1.538-3.15 1.785-2.476 2.53.537.592.747 2.065.747 5.226 0 2.421-.132 4.402-.294 4.402-.161 0-1.931-1.33-3.934-2.954-2.002-1.625-3.93-3.126-4.283-3.335-.386-.228-5.01 1.863-11.585 5.239l-10.942 5.618-7.958-.015c-6.48-.013-7.77-.13-6.942-.634zm14.15-28.632c-6.945-5.467-13.199-10.376-13.897-10.909-.698-.532-4.928-3.87-9.401-7.419-4.473-3.548-9.206-7.25-10.518-8.228l-2.384-1.776-.016-4.696c-.009-2.582.109-4.695.26-4.695.153 0 2.074 1.428 4.27 3.173 2.197 1.745 5 3.909 6.23 4.81 1.229.9 3.02 2.326 3.978 3.17.96.843 5.741 4.64 10.627 8.438 4.886 3.797 10.025 7.865 11.421 9.038 1.396 1.174 6.25 5.055 10.787 8.625 4.536 3.57 8.248 6.583 8.248 6.694 0 .11-1.57.992-3.49 1.958l-3.488 1.758zm59.294-6.395c-2.252-1.735-4.109-3.327-4.125-3.536-.017-.21 2.253-.381 5.045-.381s5.076-.182 5.076-.404c0-.57-5.943-3.491-8.375-4.117-1.117-.287-3.767-.66-5.888-.828l-3.858-.307-4.39-3.534c-2.416-1.944-4.382-3.812-4.37-4.152.012-.34 2.67-2.673 5.907-5.186 3.237-2.512 13.212-10.336 22.167-17.385 8.955-7.05 16.462-12.817 16.682-12.817.504 0 .514 8.191.01 8.9-.205.29-3.457 2.959-7.226 5.932a1740.773 1740.773 0 0 0-9.39 7.45 1393.701 1393.701 0 0 1-9.486 7.493c-3.822 2.998-6.835 5.633-6.696 5.857.138.224 1.223.408 2.41.408 2.905 0 9.633 1.786 12.756 3.387 6.665 3.416 12.527 8.652 13.36 11.935.67 2.638.43 3.064-1.322 2.356-.758-.307-3.206-.584-5.439-.615-3.563-.051-4.348.11-6.407 1.321l-2.347 1.38z" style="fill:#000;stroke-width:1.29417;fill-opacity:.60000002" transform="translate(-50.332 -141.946)"/></svg>
